<?xml version="1.0" encoding="UTF-8"?>
<svg xmlns="http://www.w3.org/2000/svg" viewBox="0 0 600 600">
  <defs>
    <style>.st0{fill:none;stroke:#1b1b1b;stroke-width:1.8}</style>
  </defs>
  <g transform="translate(300,300)">
    <circle class="st0" r="260"/>
    <!-- 12 curved ribs -->
    <g>
      <g transform="rotate(0)"><path class="st0" d="M0,-260 C40,-200 80,-200 120,-160"/></g>
      <g transform="rotate(30)"><path class="st0" d="M0,-260 C40,-200 80,-200 120,-160"/></g>
      <g transform="rotate(60)"><path class="st0" d="M0,-260 C40,-200 80,-200 120,-160"/></g>
      <g transform="rotate(90)"><path class="st0" d="M0,-260 C40,-200 80,-200 120,-160"/></g>
      <g transform="rotate(120)"><path class="st0" d="M0,-260 C40,-200 80,-200 120,-160"/></g>
      <g transform="rotate(150)"><path class="st0" d="M0,-260 C40,-200 80,-200 120,-160"/></g>
      <g transform="rotate(180)"><path class="st0" d="M0,-260 C40,-200 80,-200 120,-160"/></g>
      <g transform="rotate(210)"><path class="st0" d="M0,-260 C40,-200 80,-200 120,-160"/></g>
      <g transform="rotate(240)"><path class="st0" d="M0,-260 C40,-200 80,-200 120,-160"/></g>
      <g transform="rotate(270)"><path class="st0" d="M0,-260 C40,-200 80,-200 120,-160"/></g>
      <g transform="rotate(300)"><path class="st0" d="M0,-260 C40,-200 80,-200 120,-160"/></g>
      <g transform="rotate(330)"><path class="st0" d="M0,-260 C40,-200 80,-200 120,-160"/></g>
    </g>
    <!-- 6 small circles -->
    <g>
      <g transform="rotate(0)"><circle class="st0" cx="0" cy="-140" r="18"/></g>
      <g transform="rotate(60)"><circle class="st0" cx="0" cy="-140" r="18"/></g>
      <g transform="rotate(120)"><circle class="st0" cx="0" cy="-140" r="18"/></g>
      <g transform="rotate(180)"><circle class="st0" cx="0" cy="-140" r="18"/></g>
      <g transform="rotate(240)"><circle class="st0" cx="0" cy="-140" r="18"/></g>
      <g transform="rotate(300)"><circle class="st0" cx="0" cy="-140" r="18"/></g>
    </g>
  </g>
</svg>
