<?xml version="1.0" encoding="UTF-8"?>
<svg xmlns="http://www.w3.org/2000/svg" viewBox="0 0 600 600">
  <defs>
    <style>.st0{fill:none;stroke:#111;stroke-width:1.5}</style>
  </defs>
  <g transform="translate(300,300)">
    <circle class="st0" r="280"/>
    <!-- radial shards -->
    <g>
      <g transform="rotate(0)"><path class="st0" d="M0,0 L0,-280 L18,-260 L0,-240 Z"/></g>
      <g transform="rotate(15)"><path class="st0" d="M0,0 L0,-280 L18,-260 L0,-240 Z"/></g>
      <g transform="rotate(30)"><path class="st0" d="M0,0 L0,-280 L18,-260 L0,-240 Z"/></g>
      <g transform="rotate(45)"><path class="st0" d="M0,0 L0,-280 L18,-260 L0,-240 Z"/></g>
      <g transform="rotate(60)"><path class="st0" d="M0,0 L0,-280 L18,-260 L0,-240 Z"/></g>
      <g transform="rotate(75)"><path class="st0" d="M0,0 L0,-280 L18,-260 L0,-240 Z"/></g>
      <g transform="rotate(90)"><path class="st0" d="M0,0 L0,-280 L18,-260 L0,-240 Z"/></g>
      <g transform="rotate(105)"><path class="st0" d="M0,0 L0,-280 L18,-260 L0,-240 Z"/></g>
      <g transform="rotate(120)"><path class="st0" d="M0,0 L0,-280 L18,-260 L0,-240 Z"/></g>
      <g transform="rotate(135)"><path class="st0" d="M0,0 L0,-280 L18,-260 L0,-240 Z"/></g>
      <g transform="rotate(150)"><path class="st0" d="M0,0 L0,-280 L18,-260 L0,-240 Z"/></g>
      <g transform="rotate(165)"><path class="st0" d="M0,0 L0,-280 L18,-260 L0,-240 Z"/></g>
      <g transform="rotate(180)"><path class="st0" d="M0,0 L0,-280 L18,-260 L0,-240 Z"/></g>
      <g transform="rotate(195)"><path class="st0" d="M0,0 L0,-280 L18,-260 L0,-240 Z"/></g>
      <g transform="rotate(210)"><path class="st0" d="M0,0 L0,-280 L18,-260 L0,-240 Z"/></g>
      <g transform="rotate(225)"><path class="st0" d="M0,0 L0,-280 L18,-260 L0,-240 Z"/></g>
      <g transform="rotate(240)"><path class="st0" d="M0,0 L0,-280 L18,-260 L0,-240 Z"/></g>
      <g transform="rotate(255)"><path class="st0" d="M0,0 L0,-280 L18,-260 L0,-240 Z"/></g>
      <g transform="rotate(270)"><path class="st0" d="M0,0 L0,-280 L18,-260 L0,-240 Z"/></g>
      <g transform="rotate(285)"><path class="st0" d="M0,0 L0,-280 L18,-260 L0,-240 Z"/></g>
      <g transform="rotate(300)"><path class="st0" d="M0,0 L0,-280 L18,-260 L0,-240 Z"/></g>
      <g transform="rotate(315)"><path class="st0" d="M0,0 L0,-280 L18,-260 L0,-240 Z"/></g>
      <g transform="rotate(330)"><path class="st0" d="M0,0 L0,-280 L18,-260 L0,-240 Z"/></g>
      <g transform="rotate(345)"><path class="st0" d="M0,0 L0,-280 L18,-260 L0,-240 Z"/></g>
    </g>
    <circle class="st0" r="60"/>
  </g>
</svg>
